<mxfile host="65bd71144e">
    <diagram id="jmX7XUUWfb2kjYzrGq_j" name="Page-1">
        <mxGraphModel dx="981" dy="638" grid="1" gridSize="10" guides="1" tooltips="1" connect="1" arrows="1" fold="1" page="1" pageScale="1" pageWidth="827" pageHeight="1169" background="#5C5C5C" math="0" shadow="0">
            <root>
                <mxCell id="0"/>
                <mxCell id="1" parent="0"/>
                <mxCell id="19" value="Personne" style="swimlane;fontStyle=1;align=center;verticalAlign=top;childLayout=stackLayout;horizontal=1;startSize=26;horizontalStack=0;resizeParent=1;resizeParentMax=0;resizeLast=0;collapsible=1;marginBottom=0;fontFamily=Verdana;fontColor=#00CCCC;" vertex="1" parent="1">
                    <mxGeometry x="150" y="10" width="210" height="150" as="geometry"/>
                </mxCell>
                <mxCell id="20" value="- name: string&#10;- email: string&#10;- password: string&#10;" style="text;strokeColor=none;fillColor=none;align=left;verticalAlign=top;spacingLeft=4;spacingRight=4;overflow=hidden;rotatable=0;points=[[0,0.5],[1,0.5]];portConstraint=eastwest;fontFamily=Verdana;fontColor=#00CCCC;" vertex="1" parent="19">
                    <mxGeometry y="26" width="210" height="54" as="geometry"/>
                </mxCell>
                <mxCell id="21" value="" style="line;strokeWidth=1;fillColor=none;align=left;verticalAlign=middle;spacingTop=-1;spacingLeft=3;spacingRight=3;rotatable=0;labelPosition=right;points=[];portConstraint=eastwest;fontFamily=Verdana;fontColor=#00CCCC;" vertex="1" parent="19">
                    <mxGeometry y="80" width="210" height="8" as="geometry"/>
                </mxCell>
                <mxCell id="22" value="+ give_all_information()&#10;+ set_name(new_name: string)&#10;+ set_email(new_email: string)" style="text;strokeColor=none;fillColor=none;align=left;verticalAlign=top;spacingLeft=4;spacingRight=4;overflow=hidden;rotatable=0;points=[[0,0.5],[1,0.5]];portConstraint=eastwest;fontFamily=Verdana;fontColor=#00CCCC;" vertex="1" parent="19">
                    <mxGeometry y="88" width="210" height="62" as="geometry"/>
                </mxCell>
                <mxCell id="23" value="Admin" style="swimlane;fontStyle=1;align=center;verticalAlign=top;childLayout=stackLayout;horizontal=1;startSize=26;horizontalStack=0;resizeParent=1;resizeParentMax=0;resizeLast=0;collapsible=1;marginBottom=0;fontFamily=Verdana;fontColor=#00CCCC;" vertex="1" parent="1">
                    <mxGeometry x="10" y="240" width="150" height="52" as="geometry"/>
                </mxCell>
                <mxCell id="24" value="- role : administrateur" style="text;strokeColor=none;fillColor=none;align=left;verticalAlign=top;spacingLeft=4;spacingRight=4;overflow=hidden;rotatable=0;points=[[0,0.5],[1,0.5]];portConstraint=eastwest;fontFamily=Verdana;fontColor=#00CCCC;" vertex="1" parent="23">
                    <mxGeometry y="26" width="150" height="26" as="geometry"/>
                </mxCell>
                <mxCell id="27" value="Customer" style="swimlane;fontStyle=1;align=center;verticalAlign=top;childLayout=stackLayout;horizontal=1;startSize=26;horizontalStack=0;resizeParent=1;resizeParentMax=0;resizeLast=0;collapsible=1;marginBottom=0;fontFamily=Verdana;fontColor=#00CCCC;" vertex="1" parent="1">
                    <mxGeometry x="350" y="240" width="110" height="50" as="geometry"/>
                </mxCell>
                <mxCell id="28" value="- role : user" style="text;strokeColor=none;fillColor=none;align=left;verticalAlign=top;spacingLeft=4;spacingRight=4;overflow=hidden;rotatable=0;points=[[0,0.5],[1,0.5]];portConstraint=eastwest;fontFamily=Verdana;fontColor=#00CCCC;" vertex="1" parent="27">
                    <mxGeometry y="26" width="110" height="24" as="geometry"/>
                </mxCell>
                <mxCell id="31" value="Books" style="swimlane;fontStyle=1;align=center;verticalAlign=top;childLayout=stackLayout;horizontal=1;startSize=26;horizontalStack=0;resizeParent=1;resizeParentMax=0;resizeLast=0;collapsible=1;marginBottom=0;fontFamily=Verdana;fontColor=#00CCCC;" vertex="1" parent="1">
                    <mxGeometry x="40" y="360" width="260" height="190" as="geometry"/>
                </mxCell>
                <mxCell id="32" value="- title : string&#10;- description : string&#10;- publisher : string&#10;- number_pages : int&#10;- link_picture : string" style="text;strokeColor=none;fillColor=none;align=left;verticalAlign=top;spacingLeft=4;spacingRight=4;overflow=hidden;rotatable=0;points=[[0,0.5],[1,0.5]];portConstraint=eastwest;fontFamily=Verdana;fontColor=#00CCCC;" vertex="1" parent="31">
                    <mxGeometry y="26" width="260" height="84" as="geometry"/>
                </mxCell>
                <mxCell id="33" value="" style="line;strokeWidth=1;fillColor=none;align=left;verticalAlign=middle;spacingTop=-1;spacingLeft=3;spacingRight=3;rotatable=0;labelPosition=right;points=[];portConstraint=eastwest;fontFamily=Verdana;fontColor=#00CCCC;" vertex="1" parent="31">
                    <mxGeometry y="110" width="260" height="8" as="geometry"/>
                </mxCell>
                <mxCell id="34" value="+ give_all_information()&#10;+ set_title(new_title : string)&#10;+ set_nb_pages(new_nb_pages : int)&#10;+ set_publisher(new_publisher : string)" style="text;strokeColor=none;fillColor=none;align=left;verticalAlign=top;spacingLeft=4;spacingRight=4;overflow=hidden;rotatable=0;points=[[0,0.5],[1,0.5]];portConstraint=eastwest;fontFamily=Verdana;fontColor=#00CCCC;" vertex="1" parent="31">
                    <mxGeometry y="118" width="260" height="72" as="geometry"/>
                </mxCell>
                <mxCell id="35" value="Objects" style="swimlane;fontStyle=1;align=center;verticalAlign=top;childLayout=stackLayout;horizontal=1;startSize=26;horizontalStack=0;resizeParent=1;resizeParentMax=0;resizeLast=0;collapsible=1;marginBottom=0;fontFamily=Verdana;fontColor=#00CCCC;" vertex="1" parent="1">
                    <mxGeometry x="493" y="360" width="290" height="160" as="geometry"/>
                </mxCell>
                <mxCell id="36" value="- name : string&#10;- description : string&#10;- link_picture : string&#10;" style="text;strokeColor=none;fillColor=none;align=left;verticalAlign=top;spacingLeft=4;spacingRight=4;overflow=hidden;rotatable=0;points=[[0,0.5],[1,0.5]];portConstraint=eastwest;fontFamily=Verdana;fontColor=#00CCCC;" vertex="1" parent="35">
                    <mxGeometry y="26" width="290" height="54" as="geometry"/>
                </mxCell>
                <mxCell id="37" value="" style="line;strokeWidth=1;fillColor=none;align=left;verticalAlign=middle;spacingTop=-1;spacingLeft=3;spacingRight=3;rotatable=0;labelPosition=right;points=[];portConstraint=eastwest;fontFamily=Verdana;fontColor=#00CCCC;" vertex="1" parent="35">
                    <mxGeometry y="80" width="290" height="8" as="geometry"/>
                </mxCell>
                <mxCell id="38" value="+ give_all_information()&#10;+ set_name(new_name : string)&#10;+ set_description(new_description : string)&#10;+ set_link_picture(new_link_picture : string)" style="text;strokeColor=none;fillColor=none;align=left;verticalAlign=top;spacingLeft=4;spacingRight=4;overflow=hidden;rotatable=0;points=[[0,0.5],[1,0.5]];portConstraint=eastwest;fontFamily=Verdana;fontColor=#00CCCC;" vertex="1" parent="35">
                    <mxGeometry y="88" width="290" height="72" as="geometry"/>
                </mxCell>
                <mxCell id="39" value="Reservation" style="swimlane;fontStyle=1;align=center;verticalAlign=top;childLayout=stackLayout;horizontal=1;startSize=26;horizontalStack=0;resizeParent=1;resizeParentMax=0;resizeLast=0;collapsible=1;marginBottom=0;fontFamily=Verdana;fontColor=#00CCCC;" vertex="1" parent="1">
                    <mxGeometry x="333" y="610" width="180" height="120" as="geometry"/>
                </mxCell>
                <mxCell id="40" value="- quantity : int&#10;- content : []" style="text;strokeColor=none;fillColor=none;align=left;verticalAlign=top;spacingLeft=4;spacingRight=4;overflow=hidden;rotatable=0;points=[[0,0.5],[1,0.5]];portConstraint=eastwest;fontFamily=Verdana;fontColor=#00CCCC;" vertex="1" parent="39">
                    <mxGeometry y="26" width="180" height="44" as="geometry"/>
                </mxCell>
                <mxCell id="41" value="" style="line;strokeWidth=1;fillColor=none;align=left;verticalAlign=middle;spacingTop=-1;spacingLeft=3;spacingRight=3;rotatable=0;labelPosition=right;points=[];portConstraint=eastwest;fontFamily=Verdana;fontColor=#00CCCC;" vertex="1" parent="39">
                    <mxGeometry y="70" width="180" height="8" as="geometry"/>
                </mxCell>
                <mxCell id="42" value="+ add_reservation() : int&#10;+ cancel_reservation() : int" style="text;strokeColor=none;fillColor=none;align=left;verticalAlign=top;spacingLeft=4;spacingRight=4;overflow=hidden;rotatable=0;points=[[0,0.5],[1,0.5]];portConstraint=eastwest;fontFamily=Verdana;fontColor=#00CCCC;" vertex="1" parent="39">
                    <mxGeometry y="78" width="180" height="42" as="geometry"/>
                </mxCell>
                <mxCell id="43" value="" style="endArrow=diamondThin;endFill=1;endSize=24;html=1;fontFamily=Lucida Console;entryX=-0.028;entryY=0.315;entryDx=0;entryDy=0;entryPerimeter=0;exitX=0.506;exitY=1.033;exitDx=0;exitDy=0;exitPerimeter=0;fontColor=#00CCCC;" edge="1" parent="1" source="34" target="40">
                    <mxGeometry width="160" relative="1" as="geometry">
                        <mxPoint x="172" y="550" as="sourcePoint"/>
                        <mxPoint x="350" y="650" as="targetPoint"/>
                        <Array as="points">
                            <mxPoint x="172" y="650"/>
                        </Array>
                    </mxGeometry>
                </mxCell>
                <mxCell id="44" value="" style="endArrow=diamondThin;endFill=1;endSize=24;html=1;fontFamily=Lucida Console;entryX=1.031;entryY=0.364;entryDx=0;entryDy=0;entryPerimeter=0;exitX=0.5;exitY=1.02;exitDx=0;exitDy=0;exitPerimeter=0;fontColor=#00CCCC;" edge="1" parent="1" source="38" target="40">
                    <mxGeometry width="160" relative="1" as="geometry">
                        <mxPoint x="610" y="530" as="sourcePoint"/>
                        <mxPoint x="740" y="640" as="targetPoint"/>
                        <Array as="points">
                            <mxPoint x="640" y="652"/>
                        </Array>
                    </mxGeometry>
                </mxCell>
                <mxCell id="51" value="" style="endArrow=block;endSize=16;endFill=0;html=1;fontFamily=Verdana;entryX=-0.007;entryY=0.806;entryDx=0;entryDy=0;entryPerimeter=0;exitX=0.525;exitY=0.011;exitDx=0;exitDy=0;exitPerimeter=0;fontColor=#00CCCC;" edge="1" parent="1" source="23" target="20">
                    <mxGeometry x="0.125" y="10" width="160" relative="1" as="geometry">
                        <mxPoint x="100" y="230" as="sourcePoint"/>
                        <mxPoint x="270" y="200" as="targetPoint"/>
                        <Array as="points">
                            <mxPoint x="89" y="80"/>
                        </Array>
                        <mxPoint as="offset"/>
                    </mxGeometry>
                </mxCell>
                <mxCell id="52" value="" style="endArrow=block;endSize=16;endFill=0;html=1;fontFamily=Verdana;entryX=1.006;entryY=0.819;entryDx=0;entryDy=0;entryPerimeter=0;exitX=0.5;exitY=0;exitDx=0;exitDy=0;fontColor=#00CCCC;" edge="1" parent="1" source="27" target="20">
                    <mxGeometry width="160" relative="1" as="geometry">
                        <mxPoint x="370" y="260" as="sourcePoint"/>
                        <mxPoint x="530" y="260" as="targetPoint"/>
                        <Array as="points">
                            <mxPoint x="405" y="80"/>
                        </Array>
                    </mxGeometry>
                </mxCell>
                <mxCell id="53" value="&lt;font style=&quot;font-size: 10px&quot;&gt;*&lt;/font&gt;" style="text;html=1;align=center;verticalAlign=middle;resizable=0;points=[];autosize=1;strokeColor=none;fillColor=none;fontFamily=Verdana;fontColor=#00CCCC;" vertex="1" parent="1">
                    <mxGeometry x="70" y="220" width="20" height="20" as="geometry"/>
                </mxCell>
                <mxCell id="54" value="&lt;font style=&quot;font-size: 10px&quot;&gt;1&lt;/font&gt;" style="text;html=1;align=center;verticalAlign=middle;resizable=0;points=[];autosize=1;strokeColor=none;fillColor=none;fontFamily=Verdana;fontColor=#00CCCC;" vertex="1" parent="1">
                    <mxGeometry x="100" y="50" width="20" height="20" as="geometry"/>
                </mxCell>
                <mxCell id="55" value="&lt;font style=&quot;font-size: 10px&quot;&gt;1&lt;/font&gt;" style="text;html=1;align=center;verticalAlign=middle;resizable=0;points=[];autosize=1;strokeColor=none;fillColor=none;fontFamily=Verdana;fontColor=#00CCCC;" vertex="1" parent="1">
                    <mxGeometry x="330" y="50" width="20" height="20" as="geometry"/>
                </mxCell>
                <mxCell id="56" value="&lt;font style=&quot;font-size: 10px&quot;&gt;*&lt;/font&gt;" style="text;html=1;align=center;verticalAlign=middle;resizable=0;points=[];autosize=1;strokeColor=none;fillColor=none;fontFamily=Verdana;fontColor=#00CCCC;" vertex="1" parent="1">
                    <mxGeometry x="410" y="220" width="20" height="20" as="geometry"/>
                </mxCell>
                <mxCell id="57" value="&lt;font face=&quot;Verdana&quot; style=&quot;font-size: 10px&quot;&gt;1...*&lt;/font&gt;" style="text;html=1;align=center;verticalAlign=middle;resizable=0;points=[];autosize=1;strokeColor=none;fillColor=none;fontFamily=Lucida Console;fontColor=#00CCCC;" vertex="1" parent="1">
                    <mxGeometry x="460" y="410" width="40" height="20" as="geometry"/>
                </mxCell>
                <mxCell id="58" value="&lt;font style=&quot;font-size: 10px&quot;&gt;1...*&lt;/font&gt;" style="text;html=1;align=center;verticalAlign=middle;resizable=0;points=[];autosize=1;strokeColor=none;fillColor=none;fontFamily=Verdana;fontColor=#00CCCC;" vertex="1" parent="1">
                    <mxGeometry x="300" y="410" width="40" height="20" as="geometry"/>
                </mxCell>
                <mxCell id="59" value="1...*" style="text;html=1;align=center;verticalAlign=middle;resizable=0;points=[];autosize=1;strokeColor=none;fillColor=none;fontFamily=Verdana;fontSize=10;fontColor=#00CCCC;" vertex="1" parent="1">
                    <mxGeometry x="170" y="550" width="40" height="20" as="geometry"/>
                </mxCell>
                <mxCell id="60" value="&lt;font style=&quot;font-size: 10px;&quot;&gt;1&lt;/font&gt;" style="text;html=1;align=center;verticalAlign=middle;resizable=0;points=[];autosize=1;strokeColor=none;fillColor=none;fontFamily=Verdana;fontSize=10;fontColor=#00CCCC;" vertex="1" parent="1">
                    <mxGeometry x="310" y="620" width="20" height="20" as="geometry"/>
                </mxCell>
                <mxCell id="61" value="1" style="text;html=1;align=center;verticalAlign=middle;resizable=0;points=[];autosize=1;strokeColor=none;fillColor=none;fontFamily=Verdana;fontSize=10;fontColor=#00CCCC;" vertex="1" parent="1">
                    <mxGeometry x="513" y="620" width="20" height="20" as="geometry"/>
                </mxCell>
                <mxCell id="62" value="&lt;font style=&quot;font-size: 10px;&quot;&gt;1...*&lt;/font&gt;" style="text;html=1;align=center;verticalAlign=middle;resizable=0;points=[];autosize=1;strokeColor=none;fillColor=none;fontFamily=Verdana;fontSize=10;fontColor=#00CCCC;" vertex="1" parent="1">
                    <mxGeometry x="640" y="520" width="40" height="20" as="geometry"/>
                </mxCell>
                <mxCell id="63" value="" style="endArrow=diamondThin;endFill=0;endSize=24;html=1;fontFamily=Lucida Console;exitX=1;exitY=0.5;exitDx=0;exitDy=0;entryX=0.281;entryY=1.024;entryDx=0;entryDy=0;entryPerimeter=0;fontColor=#00CCCC;" edge="1" parent="1" source="32" target="28">
                    <mxGeometry width="160" relative="1" as="geometry">
                        <mxPoint x="399.5999999999999" y="300.96000000000004" as="sourcePoint"/>
                        <mxPoint x="311.03999999999974" y="428.76" as="targetPoint"/>
                        <Array as="points">
                            <mxPoint x="381" y="429"/>
                        </Array>
                    </mxGeometry>
                </mxCell>
                <mxCell id="64" value="" style="endArrow=diamondThin;endFill=0;endSize=24;html=1;fontFamily=Lucida Console;entryX=0.716;entryY=1.113;entryDx=0;entryDy=0;entryPerimeter=0;fontColor=#00CCCC;" edge="1" parent="1" target="28">
                    <mxGeometry width="160" relative="1" as="geometry">
                        <mxPoint x="490" y="430" as="sourcePoint"/>
                        <mxPoint x="502.4200000000001" y="429.6959999999999" as="targetPoint"/>
                        <Array as="points">
                            <mxPoint x="430" y="430"/>
                        </Array>
                    </mxGeometry>
                </mxCell>
                <mxCell id="67" value="1" style="text;html=1;align=center;verticalAlign=middle;resizable=0;points=[];autosize=1;strokeColor=none;fillColor=none;fontSize=10;fontFamily=Verdana;fontColor=#00CCCC;" vertex="1" parent="1">
                    <mxGeometry x="350" y="290" width="20" height="20" as="geometry"/>
                </mxCell>
                <mxCell id="68" value="1" style="text;html=1;align=center;verticalAlign=middle;resizable=0;points=[];autosize=1;strokeColor=none;fillColor=none;fontSize=10;fontFamily=Verdana;fontColor=#00CCCC;" vertex="1" parent="1">
                    <mxGeometry x="440" y="290" width="20" height="20" as="geometry"/>
                </mxCell>
            </root>
        </mxGraphModel>
    </diagram>
</mxfile>